<svg xmlns="http://www.w3.org/2000/svg" width="1200" height="420" viewBox="0 0 1200 420" role="img" aria-labelledby="title desc">
  <title id="title">ContextLean</title>
  <desc id="desc">Measure, trim, verify, and roll back AI agent context safely.</desc>
  <defs>
    <linearGradient id="background" x1="0" y1="0" x2="1" y2="1">
      <stop offset="0" stop-color="#07111f"/>
      <stop offset="0.55" stop-color="#102640"/>
      <stop offset="1" stop-color="#0b3640"/>
    </linearGradient>
    <linearGradient id="accent" x1="0" y1="0" x2="1" y2="0">
      <stop offset="0" stop-color="#5eead4"/>
      <stop offset="1" stop-color="#60a5fa"/>
    </linearGradient>
    <filter id="glow" x="-30%" y="-30%" width="160%" height="160%">
      <feGaussianBlur stdDeviation="14"/>
    </filter>
  </defs>
  <rect width="1200" height="420" rx="28" fill="url(#background)"/>
  <circle cx="1030" cy="70" r="150" fill="#2dd4bf" opacity="0.08" filter="url(#glow)"/>
  <circle cx="1030" cy="350" r="170" fill="#3b82f6" opacity="0.08" filter="url(#glow)"/>
  <g transform="translate(92 88)">
    <rect width="232" height="232" rx="52" fill="#0b1828" stroke="#5eead4" stroke-opacity="0.42" stroke-width="2"/>
    <path d="M48 152a78 78 0 0 1 136-52" fill="none" stroke="#28435d" stroke-width="18" stroke-linecap="round"/>
    <path d="M48 152a78 78 0 0 1 104-69" fill="none" stroke="url(#accent)" stroke-width="18" stroke-linecap="round"/>
    <circle cx="116" cy="148" r="15" fill="#d9fffa"/>
    <path d="M116 148 161 105" stroke="#d9fffa" stroke-width="10" stroke-linecap="round"/>
    <path d="M72 184h88" stroke="#5eead4" stroke-width="8" stroke-linecap="round" opacity="0.82"/>
  </g>
  <g transform="translate(380 98)">
    <text x="0" y="78" fill="#f7fbff" font-family="Inter, ui-sans-serif, system-ui, -apple-system, BlinkMacSystemFont, Segoe UI, sans-serif" font-size="62" font-weight="760" letter-spacing="-2">ContextLean</text>
    <text x="2" y="132" fill="#a9bed3" font-family="Inter, ui-sans-serif, system-ui, -apple-system, BlinkMacSystemFont, Segoe UI, sans-serif" font-size="19" font-weight="450">A reversible doctor for AI agent context.</text>
    <rect x="0" y="177" width="610" height="2" fill="url(#accent)" opacity="0.65"/>
    <text x="2" y="226" fill="#d4e5f4" font-family="ui-monospace, SFMono-Regular, Menlo, Consolas, monospace" font-size="15" letter-spacing="0.3">MEASURE · TRIM · VERIFY · ROLL BACK</text>
  </g>
</svg>
